<svg width="212" height="212" viewBox="0 0 212 212" fill="none" xmlns="http://www.w3.org/2000/svg">
<path d="M164.631 86.696C164.631 131.068 129.152 166.892 85.5656 166.892C41.979 166.892 6.5 131.068 6.5 86.696C6.5 42.3243 41.979 6.5 85.5656 6.5C129.152 6.5 164.631 42.3243 164.631 86.696Z" fill="#504DFF" stroke="#FF00B2" stroke-width="13"/>
<path d="M159.112 126.897L180.407 180.094L128.049 158.157L159.112 126.897Z" fill="#504DFF" stroke="#FF00B2" stroke-width="9"/>
<path d="M7 89.5833H35.524C36.3291 89.5833 37.0557 90.0661 37.3677 90.8083L42.7918 103.712C43.5294 105.467 46.0698 105.297 46.5663 103.459L50.3158 89.5833L57.3717 59.3887C57.8906 57.1683 61.1251 57.4069 61.3125 59.6794L63.7788 89.5833L65.749 114.105C65.9298 116.355 69.1176 116.629 69.6796 114.443L76.0712 89.5833L83.2504 58.861C83.7657 56.6559 86.9718 56.8704 87.1887 59.1245L90.1195 89.5833L92.4883 114.151C92.7048 116.397 95.8946 116.621 96.4233 114.428L102.412 89.5833L107.243 60.2939C107.618 58.0245 110.898 58.0773 111.199 60.3576L116.711 102.111C116.975 104.107 119.69 104.506 120.517 102.67L125.88 90.762C126.203 90.0446 126.917 89.5833 127.704 89.5833H158.02" stroke="#FF00B2" stroke-width="12"/>
<path d="M160.757 156.445L149.499 162.677L114.889 147.578L119.927 135.509L141.559 115.053L148.057 111.536L164.401 150.988L160.757 156.445Z" fill="#504DFF"/>
</svg>
