<svg width="215" height="215" viewBox="0 0 215 215" fill="none" xmlns="http://www.w3.org/2000/svg">
<path d="M167.053 87.9228C167.053 132.972 131.032 169.346 86.7764 169.346C42.5211 169.346 6.5 132.972 6.5 87.9228C6.5 42.8736 42.5211 6.5 86.7764 6.5C131.032 6.5 167.053 42.8736 167.053 87.9228Z" fill="white" stroke="#7CFFDC" stroke-width="13"/>
<path d="M161.386 128.579L183.075 182.76L129.749 160.418L161.386 128.579Z" fill="white" stroke="#7CFFDC" stroke-width="9"/>
<path d="M24.3754 90.3926H47.8374C48.6784 90.3926 49.4296 90.9187 49.717 91.7091L53.7663 102.845C54.446 104.714 57.1408 104.554 57.5934 102.617L60.451 90.3926L65.8285 63.7905C66.2898 61.5086 69.6181 61.7223 69.7838 64.0445L71.6637 90.3926L73.1457 111.715C73.3057 114.017 76.5922 114.263 77.0932 112.011L81.9013 90.3926L87.4022 63.1806C87.8607 60.9122 91.1637 61.1047 91.3556 63.411L93.6015 90.3926L95.3833 111.756C95.5751 114.055 98.8634 114.256 99.3343 111.998L103.839 90.3926L107.489 64.8128C107.821 62.4902 111.19 62.5375 111.456 64.8684L115.597 101.133C115.834 103.207 118.69 103.577 119.448 101.632L123.331 91.6665C123.63 90.8984 124.37 90.3926 125.194 90.3926H150.152" stroke="#7CFFDC" stroke-width="4"/>
<path d="M163.032 158.659L151.615 164.979L116.514 149.666L121.624 137.427L143.562 116.682L150.152 113.114L166.728 153.124L163.032 158.659Z" fill="white"/>
</svg>
